<?xml version="1.0" standalone="no"?>
<!DOCTYPE svg PUBLIC "-//W3C//DTD SVG 20010904//EN"
 "http://www.w3.org/TR/2001/REC-SVG-20010904/DTD/svg10.dtd">
<svg version="1.0" xmlns="http://www.w3.org/2000/svg"
 width="512.000000pt" height="512.000000pt" viewBox="0 0 512.000000 512.000000"
 preserveAspectRatio="xMidYMid meet">
<g transform="translate(0.000000,512.000000) scale(0.100000,-0.100000)"
fill="#000000" stroke="none">
<path d="M1263 5101 c-51 -24 -100 -73 -124 -126 -18 -38 -19 -87 -19 -947 l0
-908 -495 0 -496 0 -24 -25 -25 -24 0 -911 0 -911 25 -24 24 -25 495 0 495 0
0 -500 c1 -390 4 -507 14 -538 18 -53 62 -106 111 -134 l41 -23 1176 -2 c1332
-3 1235 -9 1312 77 24 26 49 66 55 87 9 29 12 307 12 1056 l1 1017 62 1 c34 0
73 2 87 4 14 3 43 7 65 11 87 13 103 17 195 46 409 131 692 428 774 813 23
108 15 296 -19 409 -135 460 -597 784 -1132 795 l-33 1 0 289 c1 187 -3 306
-11 336 -7 29 -27 63 -56 95 -77 85 12 80 -1307 80 -1116 0 -1163 -1 -1203
-19z"/>
</g>
</svg>
